<mxfile host="Electron" modified="2023-06-02T17:05:13.646Z" agent="Mozilla/5.0 (Windows NT 10.0; Win64; x64) AppleWebKit/537.36 (KHTML, like Gecko) draw.io/21.2.8 Chrome/112.0.5615.165 Electron/24.2.0 Safari/537.36" etag="jMzuBRMZ8z3NN7LyxDTQ" version="21.2.8" type="device">
  <diagram id="R2lEEEUBdFMjLlhIrx00" name="Page-1">
    <mxGraphModel dx="880" dy="532" grid="1" gridSize="10" guides="1" tooltips="1" connect="1" arrows="1" fold="1" page="1" pageScale="1" pageWidth="850" pageHeight="1100" math="0" shadow="0" extFonts="Permanent Marker^https://fonts.googleapis.com/css?family=Permanent+Marker">
      <root>
        <mxCell id="0" />
        <mxCell id="1" parent="0" />
        <mxCell id="uOkx0ZiQwRYjqOjHkl2g-48" style="edgeStyle=none;rounded=0;orthogonalLoop=1;jettySize=auto;html=1;" parent="1" source="uOkx0ZiQwRYjqOjHkl2g-49" edge="1">
          <mxGeometry relative="1" as="geometry">
            <mxPoint x="270" y="100" as="targetPoint" />
          </mxGeometry>
        </mxCell>
        <mxCell id="uOkx0ZiQwRYjqOjHkl2g-49" value="Libro" style="rounded=1;arcSize=10;whiteSpace=wrap;html=1;align=center;" parent="1" vertex="1">
          <mxGeometry x="210" y="100" width="100" height="40" as="geometry" />
        </mxCell>
        <mxCell id="uOkx0ZiQwRYjqOjHkl2g-50" value="Formato" style="rounded=1;arcSize=10;whiteSpace=wrap;html=1;align=center;fillColor=#d5e8d4;strokeColor=#82b366;" parent="1" vertex="1">
          <mxGeometry x="320" y="470" width="100" height="40" as="geometry" />
        </mxCell>
        <mxCell id="uOkx0ZiQwRYjqOjHkl2g-51" value="Genero" style="rounded=1;arcSize=10;whiteSpace=wrap;html=1;align=center;" parent="1" vertex="1">
          <mxGeometry x="100" y="240" width="100" height="40" as="geometry" />
        </mxCell>
        <mxCell id="uOkx0ZiQwRYjqOjHkl2g-53" value="LibroDetalle" style="rounded=1;arcSize=10;whiteSpace=wrap;html=1;align=center;" parent="1" vertex="1">
          <mxGeometry x="320" y="340" width="100" height="40" as="geometry" />
        </mxCell>
        <mxCell id="uOkx0ZiQwRYjqOjHkl2g-54" value="" style="fontSize=12;html=1;endArrow=ERmandOne;startArrow=ERmandOne;rounded=0;exitX=0.25;exitY=0;exitDx=0;exitDy=0;" parent="1" source="uOkx0ZiQwRYjqOjHkl2g-49" target="uOkx0ZiQwRYjqOjHkl2g-90" edge="1">
          <mxGeometry width="100" height="100" relative="1" as="geometry">
            <mxPoint x="370" y="290" as="sourcePoint" />
            <mxPoint x="215.35533905932743" y="74.14213562373095" as="targetPoint" />
          </mxGeometry>
        </mxCell>
        <mxCell id="uOkx0ZiQwRYjqOjHkl2g-55" value="FechaPublicacion" style="ellipse;whiteSpace=wrap;html=1;align=center;fillColor=#fff2cc;strokeColor=#d6b656;" parent="1" vertex="1">
          <mxGeometry x="470" y="280" width="110" height="40" as="geometry" />
        </mxCell>
        <mxCell id="uOkx0ZiQwRYjqOjHkl2g-56" value="" style="fontSize=12;html=1;endArrow=ERmandOne;startArrow=ERmandOne;rounded=0;" parent="1" source="uOkx0ZiQwRYjqOjHkl2g-49" target="uOkx0ZiQwRYjqOjHkl2g-92" edge="1">
          <mxGeometry width="100" height="100" relative="1" as="geometry">
            <mxPoint x="270" y="110" as="sourcePoint" />
            <mxPoint x="300" y="60" as="targetPoint" />
          </mxGeometry>
        </mxCell>
        <mxCell id="uOkx0ZiQwRYjqOjHkl2g-57" value="" style="fontSize=12;html=1;endArrow=ERmandOne;startArrow=ERmandOne;rounded=0;" parent="1" target="uOkx0ZiQwRYjqOjHkl2g-91" edge="1">
          <mxGeometry width="100" height="100" relative="1" as="geometry">
            <mxPoint x="300" y="110" as="sourcePoint" />
            <mxPoint x="337.6000847997457" y="100.59997880006358" as="targetPoint" />
          </mxGeometry>
        </mxCell>
        <mxCell id="uOkx0ZiQwRYjqOjHkl2g-58" value="Precio" style="ellipse;whiteSpace=wrap;html=1;align=center;fillColor=#fff2cc;strokeColor=#d6b656;" parent="1" vertex="1">
          <mxGeometry x="250" y="420" width="100" height="40" as="geometry" />
        </mxCell>
        <mxCell id="uOkx0ZiQwRYjqOjHkl2g-59" value="" style="fontSize=12;html=1;endArrow=ERmandOne;startArrow=ERmandOne;rounded=0;" parent="1" source="uOkx0ZiQwRYjqOjHkl2g-50" target="uOkx0ZiQwRYjqOjHkl2g-58" edge="1">
          <mxGeometry width="100" height="100" relative="1" as="geometry">
            <mxPoint x="466.25" y="345" as="sourcePoint" />
            <mxPoint x="225" y="-106" as="targetPoint" />
          </mxGeometry>
        </mxCell>
        <mxCell id="uOkx0ZiQwRYjqOjHkl2g-61" value="" style="fontSize=12;html=1;endArrow=ERmandOne;startArrow=ERmandOne;rounded=0;entryX=0;entryY=0.25;entryDx=0;entryDy=0;" parent="1" source="GYvfwQaz_g3dEIURXx3o-2" target="uOkx0ZiQwRYjqOjHkl2g-51" edge="1">
          <mxGeometry width="100" height="100" relative="1" as="geometry">
            <mxPoint x="75" y="219" as="sourcePoint" />
            <mxPoint x="178" y="250" as="targetPoint" />
          </mxGeometry>
        </mxCell>
        <mxCell id="uOkx0ZiQwRYjqOjHkl2g-62" value="" style="fontSize=12;html=1;endArrow=ERmandOne;startArrow=ERmandOne;rounded=0;exitX=0;exitY=0.75;exitDx=0;exitDy=0;" parent="1" source="uOkx0ZiQwRYjqOjHkl2g-51" target="GYvfwQaz_g3dEIURXx3o-1" edge="1">
          <mxGeometry width="100" height="100" relative="1" as="geometry">
            <mxPoint x="103" y="228" as="sourcePoint" />
            <mxPoint x="75" y="301" as="targetPoint" />
          </mxGeometry>
        </mxCell>
        <mxCell id="uOkx0ZiQwRYjqOjHkl2g-63" value="" style="fontSize=12;html=1;endArrow=ERmandOne;startArrow=ERmandOne;rounded=0;entryX=1;entryY=0.5;entryDx=0;entryDy=0;" parent="1" source="uOkx0ZiQwRYjqOjHkl2g-55" target="uOkx0ZiQwRYjqOjHkl2g-53" edge="1">
          <mxGeometry width="100" height="100" relative="1" as="geometry">
            <mxPoint x="360" y="247" as="sourcePoint" />
            <mxPoint x="392" y="257" as="targetPoint" />
          </mxGeometry>
        </mxCell>
        <mxCell id="uOkx0ZiQwRYjqOjHkl2g-64" value="Id" style="ellipse;whiteSpace=wrap;html=1;align=center;fillColor=#fff2cc;strokeColor=#d6b656;" parent="1" vertex="1">
          <mxGeometry x="350" y="270" width="110" height="40" as="geometry" />
        </mxCell>
        <mxCell id="uOkx0ZiQwRYjqOjHkl2g-65" value="ISBN" style="ellipse;whiteSpace=wrap;html=1;align=center;fillColor=#fff2cc;strokeColor=#d6b656;" parent="1" vertex="1">
          <mxGeometry x="60" y="95" width="110" height="40" as="geometry" />
        </mxCell>
        <mxCell id="uOkx0ZiQwRYjqOjHkl2g-66" value="Resumen" style="ellipse;whiteSpace=wrap;html=1;align=center;fillColor=#fff2cc;strokeColor=#d6b656;" parent="1" vertex="1">
          <mxGeometry x="510" y="390" width="110" height="40" as="geometry" />
        </mxCell>
        <mxCell id="uOkx0ZiQwRYjqOjHkl2g-67" value="ResumenLink" style="ellipse;whiteSpace=wrap;html=1;align=center;fillColor=#fff2cc;strokeColor=#d6b656;" parent="1" vertex="1">
          <mxGeometry x="140" y="400" width="110" height="40" as="geometry" />
        </mxCell>
        <mxCell id="uOkx0ZiQwRYjqOjHkl2g-68" value="" style="fontSize=12;html=1;endArrow=ERmandOne;startArrow=ERmandOne;rounded=0;" parent="1" source="uOkx0ZiQwRYjqOjHkl2g-64" target="uOkx0ZiQwRYjqOjHkl2g-53" edge="1">
          <mxGeometry width="100" height="100" relative="1" as="geometry">
            <mxPoint x="485" y="370" as="sourcePoint" />
            <mxPoint x="430" y="370" as="targetPoint" />
          </mxGeometry>
        </mxCell>
        <mxCell id="uOkx0ZiQwRYjqOjHkl2g-69" value="" style="fontSize=12;html=1;endArrow=ERmandOne;startArrow=ERmandOne;rounded=0;" parent="1" source="uOkx0ZiQwRYjqOjHkl2g-87" target="uOkx0ZiQwRYjqOjHkl2g-65" edge="1">
          <mxGeometry width="100" height="100" relative="1" as="geometry">
            <mxPoint x="407" y="329" as="sourcePoint" />
            <mxPoint x="393" y="350" as="targetPoint" />
          </mxGeometry>
        </mxCell>
        <mxCell id="uOkx0ZiQwRYjqOjHkl2g-70" value="" style="fontSize=12;html=1;endArrow=ERmandOne;startArrow=ERmandOne;rounded=0;entryX=0.86;entryY=0.95;entryDx=0;entryDy=0;entryPerimeter=0;" parent="1" source="uOkx0ZiQwRYjqOjHkl2g-66" target="uOkx0ZiQwRYjqOjHkl2g-89" edge="1">
          <mxGeometry width="100" height="100" relative="1" as="geometry">
            <mxPoint x="485" y="370" as="sourcePoint" />
            <mxPoint x="430" y="370" as="targetPoint" />
          </mxGeometry>
        </mxCell>
        <mxCell id="uOkx0ZiQwRYjqOjHkl2g-71" value="" style="fontSize=12;html=1;endArrow=ERmandOne;startArrow=ERmandOne;rounded=0;" parent="1" source="uOkx0ZiQwRYjqOjHkl2g-89" target="uOkx0ZiQwRYjqOjHkl2g-67" edge="1">
          <mxGeometry width="100" height="100" relative="1" as="geometry">
            <mxPoint x="448" y="413" as="sourcePoint" />
            <mxPoint x="412" y="390" as="targetPoint" />
          </mxGeometry>
        </mxCell>
        <mxCell id="uOkx0ZiQwRYjqOjHkl2g-72" value="Id" style="ellipse;whiteSpace=wrap;html=1;align=center;fillColor=#fff2cc;strokeColor=#d6b656;" parent="1" vertex="1">
          <mxGeometry x="400" y="410" width="110" height="40" as="geometry" />
        </mxCell>
        <mxCell id="uOkx0ZiQwRYjqOjHkl2g-73" value="" style="fontSize=12;html=1;endArrow=ERmandOne;startArrow=ERmandOne;rounded=0;" parent="1" source="uOkx0ZiQwRYjqOjHkl2g-72" target="uOkx0ZiQwRYjqOjHkl2g-50" edge="1">
          <mxGeometry width="100" height="100" relative="1" as="geometry">
            <mxPoint x="610" y="280" as="sourcePoint" />
            <mxPoint x="430" y="280" as="targetPoint" />
          </mxGeometry>
        </mxCell>
        <mxCell id="uOkx0ZiQwRYjqOjHkl2g-74" value="Nombre" style="ellipse;whiteSpace=wrap;html=1;align=center;fillColor=#fff2cc;strokeColor=#d6b656;" parent="1" vertex="1">
          <mxGeometry x="425" y="540" width="110" height="40" as="geometry" />
        </mxCell>
        <mxCell id="uOkx0ZiQwRYjqOjHkl2g-75" value="" style="fontSize=12;html=1;endArrow=ERmandOne;startArrow=ERmandOne;rounded=0;entryX=0.9;entryY=1.025;entryDx=0;entryDy=0;entryPerimeter=0;" parent="1" source="uOkx0ZiQwRYjqOjHkl2g-74" target="uOkx0ZiQwRYjqOjHkl2g-50" edge="1">
          <mxGeometry width="100" height="100" relative="1" as="geometry">
            <mxPoint x="728" y="237" as="sourcePoint" />
            <mxPoint x="692" y="260" as="targetPoint" />
          </mxGeometry>
        </mxCell>
        <mxCell id="uOkx0ZiQwRYjqOjHkl2g-76" value="Edicion" style="ellipse;whiteSpace=wrap;html=1;align=center;" parent="1" vertex="1">
          <mxGeometry x="210" y="270" width="110" height="40" as="geometry" />
        </mxCell>
        <mxCell id="uOkx0ZiQwRYjqOjHkl2g-77" value="Editorial" style="ellipse;whiteSpace=wrap;html=1;align=center;fillColor=#fff2cc;strokeColor=#d6b656;" parent="1" vertex="1">
          <mxGeometry x="470" y="340" width="110" height="40" as="geometry" />
        </mxCell>
        <mxCell id="uOkx0ZiQwRYjqOjHkl2g-78" value="" style="fontSize=12;html=1;endArrow=ERmandOne;startArrow=ERmandOne;rounded=0;" parent="1" source="uOkx0ZiQwRYjqOjHkl2g-77" target="uOkx0ZiQwRYjqOjHkl2g-53" edge="1">
          <mxGeometry width="100" height="100" relative="1" as="geometry">
            <mxPoint x="505" y="327" as="sourcePoint" />
            <mxPoint x="430" y="370" as="targetPoint" />
          </mxGeometry>
        </mxCell>
        <mxCell id="uOkx0ZiQwRYjqOjHkl2g-79" value="" style="fontSize=12;html=1;endArrow=ERmandOne;startArrow=ERmandOne;rounded=0;" parent="1" source="uOkx0ZiQwRYjqOjHkl2g-76" target="uOkx0ZiQwRYjqOjHkl2g-53" edge="1">
          <mxGeometry width="100" height="100" relative="1" as="geometry">
            <mxPoint x="405" y="320" as="sourcePoint" />
            <mxPoint x="390" y="350" as="targetPoint" />
          </mxGeometry>
        </mxCell>
        <mxCell id="uOkx0ZiQwRYjqOjHkl2g-87" value="Libro" style="rounded=1;arcSize=10;whiteSpace=wrap;html=1;align=center;fillColor=#d5e8d4;strokeColor=#82b366;" parent="1" vertex="1">
          <mxGeometry x="210" y="100" width="100" height="40" as="geometry" />
        </mxCell>
        <mxCell id="uOkx0ZiQwRYjqOjHkl2g-88" value="Genero" style="rounded=1;arcSize=10;whiteSpace=wrap;html=1;align=center;fillColor=#d5e8d4;strokeColor=#82b366;" parent="1" vertex="1">
          <mxGeometry x="100" y="240" width="100" height="40" as="geometry" />
        </mxCell>
        <mxCell id="uOkx0ZiQwRYjqOjHkl2g-89" value="LibroDetalle" style="rounded=1;arcSize=10;whiteSpace=wrap;html=1;align=center;fillColor=#d5e8d4;strokeColor=#82b366;" parent="1" vertex="1">
          <mxGeometry x="320" y="340" width="100" height="40" as="geometry" />
        </mxCell>
        <mxCell id="uOkx0ZiQwRYjqOjHkl2g-90" value="Id" style="ellipse;whiteSpace=wrap;html=1;align=center;fillColor=#fff2cc;strokeColor=#d6b656;" parent="1" vertex="1">
          <mxGeometry x="130" y="40" width="100" height="40" as="geometry" />
        </mxCell>
        <mxCell id="uOkx0ZiQwRYjqOjHkl2g-91" value="Autor" style="ellipse;whiteSpace=wrap;html=1;align=center;fillColor=#fff2cc;strokeColor=#d6b656;" parent="1" vertex="1">
          <mxGeometry x="330" y="70" width="100" height="40" as="geometry" />
        </mxCell>
        <mxCell id="uOkx0ZiQwRYjqOjHkl2g-92" value="Titulo" style="ellipse;whiteSpace=wrap;html=1;align=center;fillColor=#fff2cc;strokeColor=#d6b656;" parent="1" vertex="1">
          <mxGeometry x="245" y="30" width="100" height="40" as="geometry" />
        </mxCell>
        <mxCell id="uOkx0ZiQwRYjqOjHkl2g-93" value="Edicion" style="ellipse;whiteSpace=wrap;html=1;align=center;fillColor=#fff2cc;strokeColor=#d6b656;" parent="1" vertex="1">
          <mxGeometry x="210" y="270" width="110" height="40" as="geometry" />
        </mxCell>
        <mxCell id="uOkx0ZiQwRYjqOjHkl2g-96" value="&lt;span style=&quot;font-size: 24px;&quot;&gt;Modelo De Entidades&lt;br&gt;&lt;/span&gt;" style="text;html=1;strokeColor=none;fillColor=none;align=center;verticalAlign=middle;whiteSpace=wrap;rounded=0;fontSize=20;fontFamily=Architects Daughter;" parent="1" vertex="1">
          <mxGeometry x="560" y="80" width="220" height="70" as="geometry" />
        </mxCell>
        <mxCell id="uOkx0ZiQwRYjqOjHkl2g-97" value="" style="fontSize=12;html=1;endArrow=ERoneToMany;rounded=0;sketch=1;hachureGap=4;jiggle=2;curveFitting=1;fontFamily=Architects Daughter;fontSource=https%3A%2F%2Ffonts.googleapis.com%2Fcss%3Ffamily%3DArchitects%2BDaughter;exitX=0.69;exitY=1.05;exitDx=0;exitDy=0;exitPerimeter=0;" parent="1" source="uOkx0ZiQwRYjqOjHkl2g-87" target="uOkx0ZiQwRYjqOjHkl2g-89" edge="1">
          <mxGeometry width="100" height="100" relative="1" as="geometry">
            <mxPoint x="380" y="390" as="sourcePoint" />
            <mxPoint x="380" y="500" as="targetPoint" />
          </mxGeometry>
        </mxCell>
        <mxCell id="GYvfwQaz_g3dEIURXx3o-1" value="Nombre" style="ellipse;whiteSpace=wrap;html=1;align=center;fillColor=#fff2cc;strokeColor=#d6b656;" parent="1" vertex="1">
          <mxGeometry x="10" y="310" width="100" height="40" as="geometry" />
        </mxCell>
        <mxCell id="GYvfwQaz_g3dEIURXx3o-2" value="Id" style="ellipse;whiteSpace=wrap;html=1;align=center;fillColor=#fff2cc;strokeColor=#d6b656;" parent="1" vertex="1">
          <mxGeometry x="10" y="180" width="100" height="40" as="geometry" />
        </mxCell>
        <mxCell id="hg3ekGnScJbs-sq4Hia4-1" value="" style="fontSize=12;html=1;endArrow=ERoneToMany;rounded=0;sketch=1;hachureGap=4;jiggle=2;curveFitting=1;fontFamily=Architects Daughter;fontSource=https%3A%2F%2Ffonts.googleapis.com%2Fcss%3Ffamily%3DArchitects%2BDaughter;exitX=0.08;exitY=0.975;exitDx=0;exitDy=0;exitPerimeter=0;" edge="1" parent="1" source="uOkx0ZiQwRYjqOjHkl2g-87" target="uOkx0ZiQwRYjqOjHkl2g-88">
          <mxGeometry width="100" height="100" relative="1" as="geometry">
            <mxPoint x="289" y="152" as="sourcePoint" />
            <mxPoint x="372" y="350" as="targetPoint" />
          </mxGeometry>
        </mxCell>
        <mxCell id="hg3ekGnScJbs-sq4Hia4-2" value="" style="fontSize=12;html=1;endArrow=ERoneToMany;rounded=0;sketch=1;hachureGap=4;jiggle=2;curveFitting=1;fontFamily=Architects Daughter;fontSource=https%3A%2F%2Ffonts.googleapis.com%2Fcss%3Ffamily%3DArchitects%2BDaughter;" edge="1" parent="1" source="uOkx0ZiQwRYjqOjHkl2g-89" target="uOkx0ZiQwRYjqOjHkl2g-50">
          <mxGeometry width="100" height="100" relative="1" as="geometry">
            <mxPoint x="299" y="162" as="sourcePoint" />
            <mxPoint x="382" y="360" as="targetPoint" />
          </mxGeometry>
        </mxCell>
      </root>
    </mxGraphModel>
  </diagram>
</mxfile>
